;TYPE=PLATED
;Layer: PTH_Through
;EasyEDA Pro v2.2.34.8, 2025-02-09 20:03:56
;Gerber Generator version 0.3
M48
METRIC,LZ,0000.00000
;Hole size 1 = 0.30500 METRIC
T01C0.30500
;Hole size 2 = 0.50000 METRIC
T02C0.50000
;Hole size 3 = 0.91440 METRIC
T03C0.91440
;Hole size 4 = 1.00000 METRIC
T04C1.00000
;Hole size 5 = 1.10002 METRIC
T05C1.10002
;Hole size 6 = 1.20000 METRIC
T06C1.20000
;Hole size 7 = 1.90002 METRIC
T07C1.90002
;Hole size 8 = 3.00000 METRIC
T08C3.00000
%
G05
G90
T01
X17.26762Y44.06118
X29.0101Y44.08004
X32.49926Y48.03756
X88.519Y1.651
X88.519Y48.26
X1.778Y1.778
X1.651Y48.26
T02
X56.134Y13.589
T03
X32.607Y45.466
X30.607Y45.466
X28.607Y45.466
X80.994Y5.842
X78.994Y5.842
X76.994Y5.842
T04
X47.498Y28.829
X44.958Y28.829
X42.418Y28.829
X39.878Y28.829
X37.338Y28.829
X34.798Y28.829
X32.258Y28.829
X29.718Y28.829
X27.178Y28.829
X24.638Y28.829
X22.098Y28.829
X19.558Y28.829
X17.018Y28.829
X14.478Y28.829
X11.938Y28.829
X47.498Y3.302
X44.958Y3.302
X42.418Y3.302
X39.878Y3.302
X37.338Y3.302
X34.798Y3.302
X32.258Y3.302
X29.718Y3.302
X27.178Y3.302
X24.638Y3.302
X22.098Y3.302
X19.558Y3.302
X17.018Y3.302
X14.478Y3.302
X11.938Y3.302
X11.25601Y45.466
X13.25601Y45.466
X15.256Y45.466
X17.256Y45.466
X19.25602Y45.466
X21.25602Y45.466
T05
X75.184Y45.466
X77.724Y45.466
X80.264Y45.466
X82.804Y45.466
T06
X67.945Y27.94
X67.945Y30.48
X67.945Y33.02
X67.945Y35.56
X67.945Y38.1
X67.945Y40.64
X67.945Y43.18
X67.945Y45.72
X67.945Y4.318
X67.945Y6.858
X67.945Y9.398
X67.945Y11.938
X67.945Y14.478
X67.945Y17.018
X67.945Y19.558
X67.945Y22.098
T07
X56.134Y37.414
X56.134Y46.914
X41.275Y37.414
X41.275Y46.914
T08
X88.519Y1.651
X88.519Y48.26
X1.778Y1.778
X1.651Y48.26
M30