G04 Layer: DrillDrawingLayer*
G04 EasyEDA Pro v2.2.34.8, 2025-02-09 20:03:56*
G04 Gerber Generator version 0.3*
G04 Scale: 100 percent, Rotated: No, Reflected: No*
G04 Dimensions in millimeters*
G04 Leading zeros omitted, absolute positions, 4 integers and 5 decimals*
%FSLAX45Y45*%
%MOMM*%
%AMIconRect*4,1,4,0.2,-0.2,-0.2,-0.2,-0.2,0.2,0.2,0.2,0.2,-0.2,0*4,0,4,0.166667,-0.166667,0.166667,0.166667,-0.166667,0.166667,-0.166667,-0.166667,0.166667,-0.166667,0*%
%AMIconTriangle*4,1,3,-0.242567,0.171767,0.242567,0.171767,0,-0.2706,-0.242567,0.171767,0*4,0,3,-0.189767,0.1386,0,-0.1953,0.190167,0.1386,-0.189767,0.1386,0*%
%AMIconStar6*4,1,12,0.0862,0.1492,0.213233,0.123367,0.172367,0,0.213233,-0.1229,0.0862,-0.148733,0,-0.245767,-0.085767,-0.148733,-0.213267,-0.1229,-0.171933,0,-0.213267,0.1229,-0.085767,0.1492,0,0.245767,0.0862,0.1492,0*4,0,12,-0.000333,0.195333,-0.064333,0.122667,-0.169667,0.097667,-0.138333,-0.005333,-0.169667,-0.098,-0.064333,-0.122667,-0.000333,-0.195667,0.064333,-0.122667,0.169667,-0.098,0.138667,0.005,0.169667,0.098,0.064333,0.122333,-0.000333,0.195333,0*%
%AMIconStar4*4,1,8,-0.222667,0.222667,0,0.144667,0.222667,0.222667,0.144667,0,0.222667,-0.222667,0,-0.144667,-0.217433,-0.222667,-0.144667,0,-0.222667,0.222667,0*4,0,8,0.166667,-0.166667,0.108,0,0.166667,0.166667,0,0.108,-0.166667,0.166667,-0.108,0,-0.166667,-0.166667,0,-0.108,0.166667,-0.166667,0*%
%AMIconPlus*4,1,12,0.124,-0.2,-0.124,-0.2,-0.124,-0.124,-0.2,-0.124,-0.2,0.124,-0.124,0.124,-0.124,0.2,0.124,0.2,0.124,0.124,0.2,0.124,0.2,-0.124,0.124,-0.124,0.124,-0.2,0*4,0,12,0.090667,-0.166667,0.090667,-0.090667,0.166667,-0.090667,0.166667,0.090667,0.090667,0.090667,0.090667,0.166667,-0.090667,0.166667,-0.090667,0.090667,-0.166667,0.090667,-0.166667,-0.090667,-0.090667,-0.090667,-0.090667,-0.166667,0.090667,-0.166667,0*%
%AMIconX*4,1,16,0.2,-0.2,0.054533,-0.2,0,-0.145467,-0.054533,-0.2,-0.2,-0.2,-0.2,-0.054533,-0.145467,0,-0.2,0.054533,-0.2,0.2,-0.054533,0.2,0,0.145467,0.054533,0.2,0.2,0.2,0.2,0.054533,0.145467,0,0.2,-0.054533,0.2,-0.2,0*4,0,16,0.1668,-0.1664,0.1668,-0.068467,0.097933,0.000067,0.1668,0.068467,0.1668,0.1665,0.068467,0.1665,0,0.097933,-0.068467,0.1665,-0.1668,0.1665,-0.1668,0.068467,-0.097933,0.000067,-0.1668,-0.068467,-0.1668,-0.1664,-0.068467,-0.1664,0,-0.097933,0.068467,-0.1664,0.1668,-0.1664,0*%
%AMIconDiamond*4,1,4,0,-0.26,-0.26,0,0,0.26,0.26,0,0,-0.26,0*4,0,4,0,-0.203433,0.203433,0,0,0.2036,-0.203433,0,0,-0.203433,0*%
%ADD10IconRect*%
%ADD11C,0.44X0.373333*%
%ADD12IconTriangle*%
%ADD13IconStar6*%
%ADD14IconStar4*%
%ADD15IconPlus*%
%ADD16IconX*%
%ADD17IconDiamond*%
G75*


G04 Drill Drawing Start*
G54D10*
G01X5613400Y1358900D03*
G54D11*
G01X165100Y4826000D03*
G01X177800Y177800D03*
G01X8851900Y165100D03*
G01X8851900Y4826000D03*
G54D12*
G01X4127500Y3741400D03*
G01X4127500Y4691400D03*
G01X5613400Y3741400D03*
G01X5613400Y4691400D03*
G54D13*
G01X7518400Y4546600D03*
G01X7772400Y4546600D03*
G01X8026400Y4546600D03*
G01X8280400Y4546600D03*
G54D14*
G01X2860700Y4546600D03*
G01X3060700Y4546600D03*
G01X3260700Y4546600D03*
G01X7699400Y584200D03*
G01X7899400Y584200D03*
G01X8099400Y584200D03*
G54D15*
G01X165100Y4826000D03*
G01X177800Y177800D03*
G01X1726762Y4406118D03*
G01X2901010Y4408004D03*
G01X3249926Y4803756D03*
G01X8851900Y165100D03*
G01X8851900Y4826000D03*
G54D16*
G01X6794500Y431800D03*
G01X6794500Y685800D03*
G01X6794500Y939800D03*
G01X6794500Y1193800D03*
G01X6794500Y1447800D03*
G01X6794500Y1701800D03*
G01X6794500Y1955800D03*
G01X6794500Y2209800D03*
G01X6794500Y2794000D03*
G01X6794500Y3048000D03*
G01X6794500Y3302000D03*
G01X6794500Y3556000D03*
G01X6794500Y3810000D03*
G01X6794500Y4064000D03*
G01X6794500Y4318000D03*
G01X6794500Y4572000D03*
G54D17*
G01X1125601Y4546600D03*
G01X1193800Y330200D03*
G01X1193800Y2882900D03*
G01X1325601Y4546600D03*
G01X1447800Y330200D03*
G01X1447800Y2882900D03*
G01X1525600Y4546600D03*
G01X1701800Y330200D03*
G01X1701800Y2882900D03*
G01X1725600Y4546600D03*
G01X1925602Y4546600D03*
G01X1955800Y330200D03*
G01X1955800Y2882900D03*
G01X2125602Y4546600D03*
G01X2209800Y330200D03*
G01X2209800Y2882900D03*
G01X2463800Y330200D03*
G01X2463800Y2882900D03*
G01X2717800Y330200D03*
G01X2717800Y2882900D03*
G01X2971800Y330200D03*
G01X2971800Y2882900D03*
G01X3225800Y330200D03*
G01X3225800Y2882900D03*
G01X3479800Y330200D03*
G01X3479800Y2882900D03*
G01X3733800Y330200D03*
G01X3733800Y2882900D03*
G01X3987800Y330200D03*
G01X3987800Y2882900D03*
G01X4241800Y330200D03*
G01X4241800Y2882900D03*
G01X4495800Y330200D03*
G01X4495800Y2882900D03*
G01X4749800Y330200D03*
G01X4749800Y2882900D03*
G04 Drill Drawing End*

M02*

