G04 Layer: BottomLayer*
G04 EasyEDA Pro v2.2.34.8, 2025-02-09 20:03:56*
G04 Gerber Generator version 0.3*
G04 Scale: 100 percent, Rotated: No, Reflected: No*
G04 Dimensions in millimeters*
G04 Leading zeros omitted, absolute positions, 4 integers and 5 decimals*
%FSLAX45Y45*%
%MOMM*%
%ADD10C,0.2032*%
%ADD11C,0.254*%
%ADD12C,1.6*%
%ADD13R,1.6X1.5748*%
%ADD14C,2.79999*%
%ADD15R,1.8X1.8*%
%ADD16C,1.8*%
%ADD17R,1.7X1.7*%
%ADD18C,1.7*%
%ADD19C,1.5244*%
%ADD20C,1.524*%
%ADD21R,1.6X1.6*%
%ADD22C,1.0*%
%ADD23C,0.61*%
%ADD24C,3.5*%
G75*


G04 Copper Start*
G36*
G01X8641086Y165100D02*
G03X8685384Y35814I210814J0D01*
G01X8685384Y35814D01*
G01X333628Y35814D01*
G01X333628Y35814D01*
G03X388614Y177800I-155828J141986D01*
G03X177800Y388614I-210814J0D01*
G03X35814Y333628I0J-210814D01*
G01X35814Y333628D01*
G01X35814Y4659484D01*
G01X35814Y4659484D01*
G03X165100Y4615186I129286J166516D01*
G03X375914Y4826000I0J210814D01*
G03X324308Y4964186I-210814J0D01*
G01X3790677Y4964186D01*
G01X3421605Y4595114D01*
G01X3399609Y4595114D01*
G01X3331626Y4633298D01*
G03X3260700Y4658614I-70926J-86698D01*
G03X3160700Y4597070I0J-112014D01*
G03X3060700Y4658614I-100000J-50470D01*
G03X2960700Y4597070I0J-112014D01*
G01X2960700Y4597070D01*
G03X2860700Y4658614I-100000J-50470D01*
G03X2748686Y4546600I0J-112014D01*
G03X2841047Y4436324I112014J0D01*
G01X2841047Y4436324D01*
G03X2834696Y4408004I59963J-28320D01*
G03X2901010Y4341690I66314J0D01*
G03X2967324Y4408004I0J66314D01*
G03X2936431Y4464065I-66314J0D01*
G01X2936431Y4464065D01*
G03X2960700Y4496130I-75731J82535D01*
G03X3060700Y4434586I100000J50470D01*
G03X3160700Y4496130I0J112014D01*
G01X3160700Y4496130D01*
G03X3260700Y4434586I100000J50470D01*
G03X3331626Y4459902I0J112014D01*
G01X3399609Y4498086D01*
G01X3441700Y4498086D01*
G01X3441700Y4498086D01*
G03X3476005Y4512295I0J48514D01*
G01X3476005Y4512295D01*
G01X3855495Y4891786D01*
G01X6142027Y4891786D01*
G01X6027465Y4777225D01*
G01X5857947Y4777225D01*
G01X5724429Y4827730D01*
G03X5613400Y4867224I-111029J-136320D01*
G03X5437586Y4691410I0J-175814D01*
G03X5613400Y4515597I175814J0D01*
G03X5724429Y4555091I0J175814D01*
G01X5857946Y4605596D01*
G01X6063010Y4605596D01*
G01X6063010Y4605596D01*
G03X6123690Y4630731I0J85814D01*
G01X6123690Y4630731D01*
G01X6245845Y4752886D01*
G01X6949455Y4752886D01*
G01X7115086Y4587255D01*
G01X7115086Y3133814D01*
G01X6950824Y3133814D01*
G01X6869456Y3149048D01*
G03X6794500Y3173814I-74956J-101048D01*
G03X6668686Y3048000I0J-125814D01*
G03X6794500Y2922186I125814J0D01*
G03X6869457Y2946952I0J125814D01*
G01X6950823Y2962186D01*
G01X7115086Y2962186D01*
G01X7115086Y771614D01*
G01X6950824Y771614D01*
G01X6869456Y786848D01*
G01X6869456Y786848D01*
G03X6794500Y811614I-74956J-101048D01*
G03X6668686Y685800I0J-125814D01*
G03X6794500Y559986I125814J0D01*
G03X6869456Y584752I0J125814D01*
G01X6869456Y584752D01*
G01X6950823Y599986D01*
G01X7162800Y599986D01*
G01X7162800Y599986D01*
G03X7223480Y625120I0J85814D01*
G01X7261580Y663220D01*
G01X7261580Y663220D01*
G03X7286714Y723900I-60680J60680D01*
G01X7286714Y723900D01*
G01X7286714Y3009900D01*
G01X7286714Y3009900D01*
G01X7286714Y4622800D01*
G01X7286714Y4622800D01*
G03X7261580Y4683480I-85814J0D01*
G01X7261580Y4683480D01*
G01X7053273Y4891786D01*
G01X7104605Y4891786D01*
G01X7375650Y4620741D01*
G01X7397586Y4562244D01*
G01X7397586Y4461600D01*
G01X7397586Y4461600D01*
G03X7433400Y4425786I35814J0D01*
G01X7603400Y4425786D01*
G03X7639214Y4461600I0J35814D01*
G01X7639214Y4461600D01*
G01X7639214Y4631600D01*
G01X7639214Y4631600D01*
G03X7603400Y4667414I-35814J0D01*
G01X7502756Y4667414D01*
G01X7444259Y4689350D01*
G01X7169423Y4964186D01*
G01X8692692Y4964186D01*
G03X8641086Y4826000I159208J-138186D01*
G03X8851900Y4615186I210814J0D01*
G03X8989586Y4666360I0J210814D01*
G01X8989586Y324740D01*
G01X8989586Y324740D01*
G03X8851900Y375914I-137686J-159640D01*
G03X8641086Y165100I0J-210814D01*
G37*
%LPC*%
G36*
G01X6794500Y813986D02*
G03X6920314Y939800I0J125814D01*
G03X6794500Y1065614I-125814J0D01*
G03X6714126Y1036595I0J-125814D01*
G01X6714126Y1036595D01*
G01X6631776Y988314D01*
G01X6484395Y988314D01*
G01X5889005Y1583705D01*
G01X5889005Y1583705D01*
G03X5854700Y1597914I-34305J-34305D01*
G01X5854700Y1597914D01*
G01X4071395Y1597914D01*
G01X2854974Y2814335D01*
G01X2833065Y2894164D01*
G03X2717800Y2998714I-115265J-11264D01*
G03X2601986Y2882900I0J-115814D01*
G03X2706536Y2767635I115814J0D01*
G01X2786365Y2745726D01*
G01X4016995Y1515095D01*
G01X4016995Y1515095D01*
G03X4051300Y1500886I34305J34305D01*
G01X4051300Y1500886D01*
G01X5834605Y1500886D01*
G01X6429995Y905495D01*
G01X6429995Y905495D01*
G03X6464300Y891286I34305J34305D01*
G01X6464300Y891286D01*
G01X6631776Y891286D01*
G01X6714126Y843005D01*
G01X6714126Y843005D01*
G03X6794500Y813986I80374J96795D01*
G37*
G36*
G01X1839986Y2882900D02*
G03X1955800Y2767086I115814J0D01*
G03X2071065Y2871636I0J115814D01*
G01X2092974Y2951465D01*
G01X2572795Y3431286D01*
G01X4648200Y3431286D01*
G01X4648200Y3431286D01*
G03X4682505Y3445495I0J48514D01*
G01X4682505Y3445495D01*
G01X5303295Y4066286D01*
G01X6045200Y4066286D01*
G01X6045200Y4066286D01*
G03X6079505Y4080495I0J48514D01*
G01X6079505Y4080495D01*
G01X6281195Y4282186D01*
G01X6628949Y4282186D01*
G01X6702273Y4232424D01*
G03X6794500Y4192186I92227J85576D01*
G03X6920314Y4318000I0J125814D01*
G03X6794500Y4443814I-125814J0D01*
G03X6727470Y4424471I0J-125814D01*
G01X6635259Y4379214D01*
G01X6261100Y4379214D01*
G01X6261100Y4379214D01*
G03X6226795Y4365005I0J-48514D01*
G01X6226795Y4365005D01*
G01X6025105Y4163314D01*
G01X5283200Y4163314D01*
G01X5283200Y4163314D01*
G03X5248895Y4149105I0J-48514D01*
G01X5248895Y4149105D01*
G01X4628105Y3528314D01*
G01X2552700Y3528314D01*
G01X2552700Y3528314D01*
G03X2518395Y3514105I0J-48514D01*
G01X2518395Y3514105D01*
G01X2024365Y3020074D01*
G01X1944536Y2998165D01*
G03X1839986Y2882900I11264J-115265D01*
G37*
G36*
G01X6794500Y1321986D02*
G03X6920314Y1447800I0J125814D01*
G03X6794500Y1573614I-125814J0D01*
G03X6714126Y1544595I0J-125814D01*
G01X6631776Y1496314D01*
G01X6281195Y1496314D01*
G01X6066805Y1710705D01*
G01X6066805Y1710705D01*
G03X6032500Y1724914I-34305J-34305D01*
G01X6032500Y1724914D01*
G01X4198395Y1724914D01*
G01X3108974Y2814335D01*
G01X3087065Y2894164D01*
G03X2971800Y2998714I-115265J-11264D01*
G03X2855986Y2882900I0J-115814D01*
G03X2960536Y2767635I115814J0D01*
G01X3040365Y2745726D01*
G01X4143995Y1642095D01*
G01X4143995Y1642095D01*
G03X4178300Y1627886I34305J34305D01*
G01X4178300Y1627886D01*
G01X6012405Y1627886D01*
G01X6226795Y1413495D01*
G01X6226795Y1413495D01*
G03X6261100Y1399286I34305J34305D01*
G01X6261100Y1399286D01*
G01X6631776Y1399286D01*
G01X6714125Y1351006D01*
G01X6714125Y1351006D01*
G03X6794500Y1321986I80375J96794D01*
G37*
G36*
G01X2093986Y2882900D02*
G03X2209800Y2767086I115814J0D01*
G03X2325065Y2871636I0J115814D01*
G01X2346974Y2951465D01*
G01X2687095Y3291586D01*
G01X6007100Y3291586D01*
G01X6007100Y3291586D01*
G03X6041405Y3305795I0J48514D01*
G01X6041405Y3305795D01*
G01X6497095Y3761486D01*
G01X6631776Y3761486D01*
G01X6714125Y3713206D01*
G03X6794500Y3684186I80375J96794D01*
G03X6920314Y3810000I0J125814D01*
G03X6794500Y3935814I-125814J0D01*
G03X6714126Y3906795I0J-125814D01*
G01X6631776Y3858514D01*
G01X6477000Y3858514D01*
G01X6477000Y3858514D01*
G03X6442695Y3844305I0J-48514D01*
G01X6442695Y3844305D01*
G01X5987005Y3388614D01*
G01X2667000Y3388614D01*
G01X2667000Y3388614D01*
G03X2632695Y3374405I0J-48514D01*
G01X2632695Y3374405D01*
G01X2278365Y3020074D01*
G01X2198536Y2998165D01*
G03X2093986Y2882900I11264J-115265D01*
G37*
G36*
G01X6794500Y1829986D02*
G03X6920314Y1955800I0J125814D01*
G03X6794500Y2081614I-125814J0D01*
G03X6702273Y2041376I0J-125814D01*
G01X6702273Y2041376D01*
G01X6628949Y1991614D01*
G01X4211095Y1991614D01*
G01X3417330Y2785379D01*
G03X3479800Y2767086I62470J97521D01*
G03X3595614Y2882900I0J115814D01*
G03X3479800Y2998714I-115814J0D01*
G03X3363986Y2882900I0J-115814D01*
G03X3382279Y2820430I115814J0D01*
G01X3371602Y2831107D01*
G01X3336244Y2917756D01*
G03X3225800Y2998714I-110444J-34856D01*
G03X3109986Y2882900I0J-115814D01*
G03X3225800Y2767086I115814J0D01*
G03X3238172Y2767749I0J115814D01*
G01X3310074Y2755417D01*
G01X4156695Y1908795D01*
G01X4156695Y1908795D01*
G03X4191000Y1894586I34305J34305D01*
G01X4191000Y1894586D01*
G01X6635259Y1894586D01*
G01X6727470Y1849329D01*
G01X6727470Y1849329D01*
G03X6794500Y1829986I67030J106471D01*
G37*
G36*
G01X2347986Y2882900D02*
G03X2463800Y2767086I115814J0D01*
G03X2579065Y2871636I0J115814D01*
G01X2600974Y2951465D01*
G01X2788695Y3139186D01*
G01X6286500Y3139186D01*
G01X6286500Y3139186D01*
G03X6320805Y3153395I0J48514D01*
G01X6320805Y3153395D01*
G01X6420895Y3253486D01*
G01X6631776Y3253486D01*
G01X6714125Y3205206D01*
G03X6794500Y3176186I80375J96794D01*
G03X6920314Y3302000I0J125814D01*
G03X6794500Y3427814I-125814J0D01*
G03X6714126Y3398795I0J-125814D01*
G01X6631776Y3350514D01*
G01X6400800Y3350514D01*
G01X6400800Y3350514D01*
G03X6366495Y3336305I0J-48514D01*
G01X6366495Y3336305D01*
G01X6266405Y3236214D01*
G01X2755900Y3236214D01*
G01X2755900Y3236214D01*
G03X2708062Y3195771I0J-48514D01*
G01X2532365Y3020074D01*
G01X2452536Y2998165D01*
G03X2347986Y2882900I11264J-115265D01*
G37*
G36*
G01X1077986Y2804160D02*
G03X1113800Y2768346I35814J0D01*
G01X1113800Y2768346D01*
G01X1273800Y2768346D01*
G01X1273800Y2768346D01*
G03X1309614Y2804160I0J35814D01*
G01X1309614Y2804160D01*
G01X1309614Y2961640D01*
G01X1309614Y2961640D01*
G03X1273800Y2997454I-35814J0D01*
G01X1273800Y2997454D01*
G01X1255024Y2997454D01*
G01X1242314Y3012706D01*
G01X1242314Y3574005D01*
G01X1559905Y3891596D01*
G01X1559905Y3891596D01*
G03X1574114Y3925900I-34305J34305D01*
G01X1574114Y3925900D01*
G01X1574114Y4401120D01*
G01X1615069Y4473060D01*
G03X1625600Y4488180I-89469J73540D01*
G03X1672212Y4443825I100000J58420D01*
G03X1660448Y4406118I54550J-37708D01*
G03X1726762Y4339804I66314J0D01*
G03X1793076Y4406118I0J66314D01*
G03X1780681Y4444723I-66314J0D01*
G03X1825600Y4488180I-55081J101877D01*
G01X1825600Y4488180D01*
G03X1925599Y4430786I100000J58420D01*
G03X2009785Y4467066I0J115814D01*
G01X2009785Y4466600D01*
G03X2045599Y4430786I35814J0D01*
G01X2205599Y4430786D01*
G03X2241413Y4466600I0J35814D01*
G01X2241413Y4626600D01*
G03X2205599Y4662414I-35814J0D01*
G01X2045599Y4662414D01*
G03X2009785Y4626600I0J-35814D01*
G01X2009785Y4626134D01*
G03X1925599Y4662414I-84186J-79534D01*
G03X1825600Y4605020I0J-115814D01*
G03X1725600Y4662414I-100000J-58420D01*
G03X1625600Y4605020I0J-115814D01*
G03X1525600Y4662414I-100000J-58420D01*
G03X1425600Y4605020I0J-115814D01*
G03X1325601Y4662414I-100000J-58420D01*
G03X1225601Y4605020I0J-115814D01*
G03X1125601Y4662414I-100000J-58420D01*
G03X1009787Y4546600I0J-115814D01*
G03X1125601Y4430786I115814J0D01*
G03X1225601Y4488180I0J115814D01*
G03X1325601Y4430786I100000J58420D01*
G03X1425600Y4488180I0J115814D01*
G03X1436131Y4473060I100000J58420D01*
G01X1477086Y4401120D01*
G01X1477086Y3945995D01*
G01X1159495Y3628405D01*
G01X1159495Y3628405D01*
G03X1145286Y3594100I34305J-34305D01*
G01X1145286Y3594100D01*
G01X1145286Y3012706D01*
G01X1132576Y2997454D01*
G01X1113800Y2997454D01*
G01X1113800Y2997454D01*
G03X1077986Y2961640I0J-35814D01*
G01X1077986Y2961640D01*
G01X1077986Y2804160D01*
G37*
G36*
G01X6695272Y307195D02*
G03X6704500Y305986I9228J34605D01*
G01X6704500Y305986D01*
G01X6884500Y305986D01*
G01X6884500Y305986D01*
G03X6920314Y341800I0J35814D01*
G01X6920314Y341800D01*
G01X6920314Y521800D01*
G01X6920314Y521800D01*
G03X6884500Y557614I-35814J0D01*
G01X6884500Y557614D01*
G01X6704500Y557614D01*
G01X6704500Y557614D01*
G03X6695272Y556405I0J-35814D01*
G01X6695272Y556405D01*
G01X6549807Y517614D01*
G01X5915645Y517614D01*
G01X5699214Y734045D01*
G01X5699214Y1358900D01*
G03X5613400Y1444714I-85814J0D01*
G03X5527586Y1358900I0J-85814D01*
G01X5527586Y698500D01*
G01X5527586Y698500D01*
G03X5552720Y637820I85814J0D01*
G01X5552720Y637820D01*
G01X5819420Y371120D01*
G01X5819420Y371120D01*
G03X5880100Y345986I60680J60680D01*
G01X6549808Y345986D01*
G01X6695272Y307195D01*
G37*
G36*
G01X7999400Y533730D02*
G03X8099400Y472186I100000J50470D01*
G03X8211414Y584200I0J112014D01*
G03X8099400Y696214I-112014J0D01*
G03X7999400Y634670I0J-112014D01*
G01X7999400Y634670D01*
G03X7899400Y696214I-100000J-50470D01*
G03X7799400Y634670I0J-112014D01*
G01X7799400Y634670D01*
G03X7699400Y696214I-100000J-50470D01*
G03X7587386Y584200I0J-112014D01*
G03X7699400Y472186I112014J0D01*
G03X7799400Y533730I0J112014D01*
G01X7799400Y533730D01*
G03X7899400Y472186I100000J50470D01*
G03X7999400Y533730I0J112014D01*
G37*
G36*
G01X4127500Y3565586D02*
G03X4303314Y3741400I0J175814D01*
G03X4127500Y3917213I-175814J0D01*
G03X3951686Y3741400I0J-175814D01*
G03X4127500Y3565586I175814J0D01*
G37*
G36*
G01X5437586Y3741400D02*
G03X5613400Y3565586I175814J0D01*
G03X5789214Y3741400I0J175814D01*
G03X5613400Y3917213I-175814J0D01*
G03X5437586Y3741400I0J-175814D01*
G37*
G36*
G01X4127500Y4515597D02*
G03X4303314Y4691410I0J175814D01*
G03X4127500Y4867224I-175814J0D01*
G03X3951686Y4691410I0J-175814D01*
G03X4127500Y4515597I175814J0D01*
G37*
G36*
G01X6668686Y2704000D02*
G03X6704500Y2668186I35814J0D01*
G01X6704500Y2668186D01*
G01X6884500Y2668186D01*
G01X6884500Y2668186D01*
G03X6920314Y2704000I0J35814D01*
G01X6920314Y2704000D01*
G01X6920314Y2884000D01*
G01X6920314Y2884000D01*
G03X6884500Y2919814I-35814J0D01*
G01X6884500Y2919814D01*
G01X6704500Y2919814D01*
G01X6704500Y2919814D01*
G03X6668686Y2884000I0J-35814D01*
G01X6668686Y2884000D01*
G01X6668686Y2704000D01*
G37*
G36*
G01X6668686Y3556000D02*
G03X6794500Y3430186I125814J0D01*
G03X6920314Y3556000I0J125814D01*
G03X6794500Y3681814I-125814J0D01*
G03X6668686Y3556000I0J-125814D01*
G37*
G36*
G01X6668686Y4064000D02*
G03X6794500Y3938186I125814J0D01*
G03X6920314Y4064000I0J125814D01*
G03X6794500Y4189814I-125814J0D01*
G03X6668686Y4064000I0J-125814D01*
G37*
G36*
G01X6794500Y4446186D02*
G03X6920314Y4572000I0J125814D01*
G03X6794500Y4697814I-125814J0D01*
G03X6668686Y4572000I0J-125814D01*
G03X6794500Y4446186I125814J0D01*
G37*
G36*
G01X6668686Y1701800D02*
G03X6794500Y1575986I125814J0D01*
G03X6920314Y1701800I0J125814D01*
G03X6794500Y1827614I-125814J0D01*
G03X6668686Y1701800I0J-125814D01*
G37*
G36*
G01X6794500Y1067986D02*
G03X6920314Y1193800I0J125814D01*
G03X6794500Y1319614I-125814J0D01*
G03X6668686Y1193800I0J-125814D01*
G03X6794500Y1067986I125814J0D01*
G37*
G36*
G01X6668686Y2209800D02*
G03X6794500Y2083986I125814J0D01*
G03X6920314Y2209800I0J125814D01*
G03X6794500Y2335614I-125814J0D01*
G03X6668686Y2209800I0J-125814D01*
G37*
G36*
G01X8026400Y4425786D02*
G03X8147214Y4546600I0J120814D01*
G03X8026400Y4667414I-120814J0D01*
G03X7905586Y4546600I0J-120814D01*
G03X8026400Y4425786I120814J0D01*
G37*
G36*
G01X8280400Y4425786D02*
G03X8401214Y4546600I0J120814D01*
G03X8280400Y4667414I-120814J0D01*
G03X8159586Y4546600I0J-120814D01*
G03X8280400Y4425786I120814J0D01*
G37*
G36*
G01X7651586Y4546600D02*
G03X7772400Y4425786I120814J0D01*
G03X7893214Y4546600I0J120814D01*
G03X7772400Y4667414I-120814J0D01*
G03X7651586Y4546600I0J-120814D01*
G37*
G36*
G01X1701800Y2767086D02*
G03X1817614Y2882900I0J115814D01*
G03X1701800Y2998714I-115814J0D01*
G03X1585986Y2882900I0J-115814D01*
G03X1701800Y2767086I115814J0D01*
G37*
G36*
G01X1447800Y2767086D02*
G03X1563614Y2882900I0J115814D01*
G03X1447800Y2998714I-115814J0D01*
G03X1331986Y2882900I0J-115814D01*
G03X1447800Y2767086I115814J0D01*
G37*
G36*
G01X1701800Y214386D02*
G03X1817614Y330200I0J115814D01*
G03X1701800Y446014I-115814J0D01*
G03X1585986Y330200I0J-115814D01*
G03X1701800Y214386I115814J0D01*
G37*
G36*
G01X1447800Y214386D02*
G03X1563614Y330200I0J115814D01*
G03X1447800Y446014I-115814J0D01*
G03X1331986Y330200I0J-115814D01*
G03X1447800Y214386I115814J0D01*
G37*
G36*
G01X2093986Y330200D02*
G03X2209800Y214386I115814J0D01*
G03X2325614Y330200I0J115814D01*
G03X2209800Y446014I-115814J0D01*
G03X2093986Y330200I0J-115814D01*
G37*
G36*
G01X2971800Y214386D02*
G03X3087614Y330200I0J115814D01*
G03X2971800Y446014I-115814J0D01*
G03X2855986Y330200I0J-115814D01*
G03X2971800Y214386I115814J0D01*
G37*
G36*
G01X1955800Y214386D02*
G03X2071614Y330200I0J115814D01*
G03X1955800Y446014I-115814J0D01*
G03X1839986Y330200I0J-115814D01*
G03X1955800Y214386I115814J0D01*
G37*
G36*
G01X2601986Y330200D02*
G03X2717800Y214386I115814J0D01*
G03X2833614Y330200I0J115814D01*
G03X2717800Y446014I-115814J0D01*
G03X2601986Y330200I0J-115814D01*
G37*
G36*
G01X2463800Y214386D02*
G03X2579614Y330200I0J115814D01*
G03X2463800Y446014I-115814J0D01*
G03X2347986Y330200I0J-115814D01*
G03X2463800Y214386I115814J0D01*
G37*
G36*
G01X3109986Y330200D02*
G03X3225800Y214386I115814J0D01*
G03X3341614Y330200I0J115814D01*
G03X3225800Y446014I-115814J0D01*
G03X3109986Y330200I0J-115814D01*
G37*
G36*
G01X4379986Y2882900D02*
G03X4495800Y2767086I115814J0D01*
G03X4611614Y2882900I0J115814D01*
G03X4495800Y2998714I-115814J0D01*
G03X4379986Y2882900I0J-115814D01*
G37*
G36*
G01X4633986Y2882900D02*
G03X4749800Y2767086I115814J0D01*
G03X4865614Y2882900I0J115814D01*
G03X4749800Y2998714I-115814J0D01*
G03X4633986Y2882900I0J-115814D01*
G37*
G36*
G01X3987800Y2767086D02*
G03X4103614Y2882900I0J115814D01*
G03X3987800Y2998714I-115814J0D01*
G03X3871986Y2882900I0J-115814D01*
G03X3987800Y2767086I115814J0D01*
G37*
G36*
G01X4241800Y2767086D02*
G03X4357614Y2882900I0J115814D01*
G03X4241800Y2998714I-115814J0D01*
G03X4125986Y2882900I0J-115814D01*
G03X4241800Y2767086I115814J0D01*
G37*
G36*
G01X3617986Y2882900D02*
G03X3733800Y2767086I115814J0D01*
G03X3849614Y2882900I0J115814D01*
G03X3733800Y2998714I-115814J0D01*
G03X3617986Y2882900I0J-115814D01*
G37*
G36*
G01X3871986Y330200D02*
G03X3987800Y214386I115814J0D01*
G03X4103614Y330200I0J115814D01*
G03X3987800Y446014I-115814J0D01*
G03X3871986Y330200I0J-115814D01*
G37*
G36*
G01X4125986Y330200D02*
G03X4241800Y214386I115814J0D01*
G03X4357614Y330200I0J115814D01*
G03X4241800Y446014I-115814J0D01*
G03X4125986Y330200I0J-115814D01*
G37*
G36*
G01X3617986Y330200D02*
G03X3733800Y214386I115814J0D01*
G03X3849614Y330200I0J115814D01*
G03X3733800Y446014I-115814J0D01*
G03X3617986Y330200I0J-115814D01*
G37*
G36*
G01X4749800Y214386D02*
G03X4865614Y330200I0J115814D01*
G03X4749800Y446014I-115814J0D01*
G03X4633986Y330200I0J-115814D01*
G03X4749800Y214386I115814J0D01*
G37*
G36*
G01X3479800Y214386D02*
G03X3595614Y330200I0J115814D01*
G03X3479800Y446014I-115814J0D01*
G03X3363986Y330200I0J-115814D01*
G03X3479800Y214386I115814J0D01*
G37*
G36*
G01X4379986Y330200D02*
G03X4495800Y214386I115814J0D01*
G03X4611614Y330200I0J115814D01*
G03X4495800Y446014I-115814J0D01*
G03X4379986Y330200I0J-115814D01*
G37*
G36*
G01X1273800Y215646D02*
G03X1309614Y251460I0J35814D01*
G01X1309614Y251460D01*
G01X1309614Y408940D01*
G01X1309614Y408940D01*
G03X1273800Y444754I-35814J0D01*
G01X1273800Y444754D01*
G01X1113800Y444754D01*
G01X1113800Y444754D01*
G03X1077986Y408940I0J-35814D01*
G01X1077986Y408940D01*
G01X1077986Y251460D01*
G01X1077986Y251460D01*
G03X1113800Y215646I35814J0D01*
G01X1113800Y215646D01*
G01X1273800Y215646D01*
G37*
%LPD*%
G54D10*
G01X8641086Y165100D02*
G03X8685384Y35814I210814J0D01*
G01X8685384Y35814D01*
G01X333628Y35814D01*
G01X333628Y35814D01*
G03X388614Y177800I-155828J141986D01*
G03X177800Y388614I-210814J0D01*
G03X35814Y333628I0J-210814D01*
G01X35814Y333628D01*
G01X35814Y4659484D01*
G01X35814Y4659484D01*
G03X165100Y4615186I129286J166516D01*
G03X375914Y4826000I0J210814D01*
G03X324308Y4964186I-210814J0D01*
G01X3790677Y4964186D01*
G01X3421605Y4595114D01*
G01X3399609Y4595114D01*
G01X3331626Y4633298D01*
G03X3260700Y4658614I-70926J-86698D01*
G03X3160700Y4597070I0J-112014D01*
G03X3060700Y4658614I-100000J-50470D01*
G03X2960700Y4597070I0J-112014D01*
G01X2960700Y4597070D01*
G03X2860700Y4658614I-100000J-50470D01*
G03X2748686Y4546600I0J-112014D01*
G03X2841047Y4436324I112014J0D01*
G01X2841047Y4436324D01*
G03X2834696Y4408004I59963J-28320D01*
G03X2901010Y4341690I66314J0D01*
G03X2967324Y4408004I0J66314D01*
G03X2936431Y4464065I-66314J0D01*
G01X2936431Y4464065D01*
G03X2960700Y4496130I-75731J82535D01*
G03X3060700Y4434586I100000J50470D01*
G03X3160700Y4496130I0J112014D01*
G01X3160700Y4496130D01*
G03X3260700Y4434586I100000J50470D01*
G03X3331626Y4459902I0J112014D01*
G01X3399609Y4498086D01*
G01X3441700Y4498086D01*
G01X3441700Y4498086D01*
G03X3476005Y4512295I0J48514D01*
G01X3476005Y4512295D01*
G01X3855495Y4891786D01*
G01X6142027Y4891786D01*
G01X6027465Y4777225D01*
G01X5857947Y4777225D01*
G01X5724429Y4827730D01*
G03X5613400Y4867224I-111029J-136320D01*
G03X5437586Y4691410I0J-175814D01*
G03X5613400Y4515597I175814J0D01*
G03X5724429Y4555091I0J175814D01*
G01X5857946Y4605596D01*
G01X6063010Y4605596D01*
G01X6063010Y4605596D01*
G03X6123690Y4630731I0J85814D01*
G01X6123690Y4630731D01*
G01X6245845Y4752886D01*
G01X6949455Y4752886D01*
G01X7115086Y4587255D01*
G01X7115086Y3133814D01*
G01X6950824Y3133814D01*
G01X6869456Y3149048D01*
G03X6794500Y3173814I-74956J-101048D01*
G03X6668686Y3048000I0J-125814D01*
G03X6794500Y2922186I125814J0D01*
G03X6869457Y2946952I0J125814D01*
G01X6950823Y2962186D01*
G01X7115086Y2962186D01*
G01X7115086Y771614D01*
G01X6950824Y771614D01*
G01X6869456Y786848D01*
G01X6869456Y786848D01*
G03X6794500Y811614I-74956J-101048D01*
G03X6668686Y685800I0J-125814D01*
G03X6794500Y559986I125814J0D01*
G03X6869456Y584752I0J125814D01*
G01X6869456Y584752D01*
G01X6950823Y599986D01*
G01X7162800Y599986D01*
G01X7162800Y599986D01*
G03X7223480Y625120I0J85814D01*
G01X7261580Y663220D01*
G01X7261580Y663220D01*
G03X7286714Y723900I-60680J60680D01*
G01X7286714Y723900D01*
G01X7286714Y3009900D01*
G01X7286714Y3009900D01*
G01X7286714Y4622800D01*
G01X7286714Y4622800D01*
G03X7261580Y4683480I-85814J0D01*
G01X7261580Y4683480D01*
G01X7053273Y4891786D01*
G01X7104605Y4891786D01*
G01X7375650Y4620741D01*
G01X7397586Y4562244D01*
G01X7397586Y4461600D01*
G01X7397586Y4461600D01*
G03X7433400Y4425786I35814J0D01*
G01X7603400Y4425786D01*
G03X7639214Y4461600I0J35814D01*
G01X7639214Y4461600D01*
G01X7639214Y4631600D01*
G01X7639214Y4631600D01*
G03X7603400Y4667414I-35814J0D01*
G01X7502756Y4667414D01*
G01X7444259Y4689350D01*
G01X7169423Y4964186D01*
G01X8692692Y4964186D01*
G03X8641086Y4826000I159208J-138186D01*
G03X8851900Y4615186I210814J0D01*
G03X8989586Y4666360I0J210814D01*
G01X8989586Y324740D01*
G01X8989586Y324740D01*
G03X8851900Y375914I-137686J-159640D01*
G03X8641086Y165100I0J-210814D01*
G01X6794500Y813986D02*
G03X6920314Y939800I0J125814D01*
G03X6794500Y1065614I-125814J0D01*
G03X6714126Y1036595I0J-125814D01*
G01X6714126Y1036595D01*
G01X6631776Y988314D01*
G01X6484395Y988314D01*
G01X5889005Y1583705D01*
G01X5889005Y1583705D01*
G03X5854700Y1597914I-34305J-34305D01*
G01X5854700Y1597914D01*
G01X4071395Y1597914D01*
G01X2854974Y2814335D01*
G01X2833065Y2894164D01*
G03X2717800Y2998714I-115265J-11264D01*
G03X2601986Y2882900I0J-115814D01*
G03X2706536Y2767635I115814J0D01*
G01X2786365Y2745726D01*
G01X4016995Y1515095D01*
G01X4016995Y1515095D01*
G03X4051300Y1500886I34305J34305D01*
G01X4051300Y1500886D01*
G01X5834605Y1500886D01*
G01X6429995Y905495D01*
G01X6429995Y905495D01*
G03X6464300Y891286I34305J34305D01*
G01X6464300Y891286D01*
G01X6631776Y891286D01*
G01X6714126Y843005D01*
G01X6714126Y843005D01*
G03X6794500Y813986I80374J96795D01*
G01X1839986Y2882900D02*
G03X1955800Y2767086I115814J0D01*
G03X2071065Y2871636I0J115814D01*
G01X2092974Y2951465D01*
G01X2572795Y3431286D01*
G01X4648200Y3431286D01*
G01X4648200Y3431286D01*
G03X4682505Y3445495I0J48514D01*
G01X4682505Y3445495D01*
G01X5303295Y4066286D01*
G01X6045200Y4066286D01*
G01X6045200Y4066286D01*
G03X6079505Y4080495I0J48514D01*
G01X6079505Y4080495D01*
G01X6281195Y4282186D01*
G01X6628949Y4282186D01*
G01X6702273Y4232424D01*
G03X6794500Y4192186I92227J85576D01*
G03X6920314Y4318000I0J125814D01*
G03X6794500Y4443814I-125814J0D01*
G03X6727470Y4424471I0J-125814D01*
G01X6635259Y4379214D01*
G01X6261100Y4379214D01*
G01X6261100Y4379214D01*
G03X6226795Y4365005I0J-48514D01*
G01X6226795Y4365005D01*
G01X6025105Y4163314D01*
G01X5283200Y4163314D01*
G01X5283200Y4163314D01*
G03X5248895Y4149105I0J-48514D01*
G01X5248895Y4149105D01*
G01X4628105Y3528314D01*
G01X2552700Y3528314D01*
G01X2552700Y3528314D01*
G03X2518395Y3514105I0J-48514D01*
G01X2518395Y3514105D01*
G01X2024365Y3020074D01*
G01X1944536Y2998165D01*
G03X1839986Y2882900I11264J-115265D01*
G01X6794500Y1321986D02*
G03X6920314Y1447800I0J125814D01*
G03X6794500Y1573614I-125814J0D01*
G03X6714126Y1544595I0J-125814D01*
G01X6631776Y1496314D01*
G01X6281195Y1496314D01*
G01X6066805Y1710705D01*
G01X6066805Y1710705D01*
G03X6032500Y1724914I-34305J-34305D01*
G01X6032500Y1724914D01*
G01X4198395Y1724914D01*
G01X3108974Y2814335D01*
G01X3087065Y2894164D01*
G03X2971800Y2998714I-115265J-11264D01*
G03X2855986Y2882900I0J-115814D01*
G03X2960536Y2767635I115814J0D01*
G01X3040365Y2745726D01*
G01X4143995Y1642095D01*
G01X4143995Y1642095D01*
G03X4178300Y1627886I34305J34305D01*
G01X4178300Y1627886D01*
G01X6012405Y1627886D01*
G01X6226795Y1413495D01*
G01X6226795Y1413495D01*
G03X6261100Y1399286I34305J34305D01*
G01X6261100Y1399286D01*
G01X6631776Y1399286D01*
G01X6714125Y1351006D01*
G01X6714125Y1351006D01*
G03X6794500Y1321986I80375J96794D01*
G01X2093986Y2882900D02*
G03X2209800Y2767086I115814J0D01*
G03X2325065Y2871636I0J115814D01*
G01X2346974Y2951465D01*
G01X2687095Y3291586D01*
G01X6007100Y3291586D01*
G01X6007100Y3291586D01*
G03X6041405Y3305795I0J48514D01*
G01X6041405Y3305795D01*
G01X6497095Y3761486D01*
G01X6631776Y3761486D01*
G01X6714125Y3713206D01*
G03X6794500Y3684186I80375J96794D01*
G03X6920314Y3810000I0J125814D01*
G03X6794500Y3935814I-125814J0D01*
G03X6714126Y3906795I0J-125814D01*
G01X6631776Y3858514D01*
G01X6477000Y3858514D01*
G01X6477000Y3858514D01*
G03X6442695Y3844305I0J-48514D01*
G01X6442695Y3844305D01*
G01X5987005Y3388614D01*
G01X2667000Y3388614D01*
G01X2667000Y3388614D01*
G03X2632695Y3374405I0J-48514D01*
G01X2632695Y3374405D01*
G01X2278365Y3020074D01*
G01X2198536Y2998165D01*
G03X2093986Y2882900I11264J-115265D01*
G01X6794500Y1829986D02*
G03X6920314Y1955800I0J125814D01*
G03X6794500Y2081614I-125814J0D01*
G03X6702273Y2041376I0J-125814D01*
G01X6702273Y2041376D01*
G01X6628949Y1991614D01*
G01X4211095Y1991614D01*
G01X3417330Y2785379D01*
G03X3479800Y2767086I62470J97521D01*
G03X3595614Y2882900I0J115814D01*
G03X3479800Y2998714I-115814J0D01*
G03X3363986Y2882900I0J-115814D01*
G03X3382279Y2820430I115814J0D01*
G01X3371602Y2831107D01*
G01X3336244Y2917756D01*
G03X3225800Y2998714I-110444J-34856D01*
G03X3109986Y2882900I0J-115814D01*
G03X3225800Y2767086I115814J0D01*
G03X3238172Y2767749I0J115814D01*
G01X3310074Y2755417D01*
G01X4156695Y1908795D01*
G01X4156695Y1908795D01*
G03X4191000Y1894586I34305J34305D01*
G01X4191000Y1894586D01*
G01X6635259Y1894586D01*
G01X6727470Y1849329D01*
G01X6727470Y1849329D01*
G03X6794500Y1829986I67030J106471D01*
G01X2347986Y2882900D02*
G03X2463800Y2767086I115814J0D01*
G03X2579065Y2871636I0J115814D01*
G01X2600974Y2951465D01*
G01X2788695Y3139186D01*
G01X6286500Y3139186D01*
G01X6286500Y3139186D01*
G03X6320805Y3153395I0J48514D01*
G01X6320805Y3153395D01*
G01X6420895Y3253486D01*
G01X6631776Y3253486D01*
G01X6714125Y3205206D01*
G03X6794500Y3176186I80375J96794D01*
G03X6920314Y3302000I0J125814D01*
G03X6794500Y3427814I-125814J0D01*
G03X6714126Y3398795I0J-125814D01*
G01X6631776Y3350514D01*
G01X6400800Y3350514D01*
G01X6400800Y3350514D01*
G03X6366495Y3336305I0J-48514D01*
G01X6366495Y3336305D01*
G01X6266405Y3236214D01*
G01X2755900Y3236214D01*
G01X2755900Y3236214D01*
G03X2708062Y3195771I0J-48514D01*
G01X2532365Y3020074D01*
G01X2452536Y2998165D01*
G03X2347986Y2882900I11264J-115265D01*
G01X1077986Y2804160D02*
G03X1113800Y2768346I35814J0D01*
G01X1113800Y2768346D01*
G01X1273800Y2768346D01*
G01X1273800Y2768346D01*
G03X1309614Y2804160I0J35814D01*
G01X1309614Y2804160D01*
G01X1309614Y2961640D01*
G01X1309614Y2961640D01*
G03X1273800Y2997454I-35814J0D01*
G01X1273800Y2997454D01*
G01X1255024Y2997454D01*
G01X1242314Y3012706D01*
G01X1242314Y3574005D01*
G01X1559905Y3891596D01*
G01X1559905Y3891596D01*
G03X1574114Y3925900I-34305J34305D01*
G01X1574114Y3925900D01*
G01X1574114Y4401120D01*
G01X1615069Y4473060D01*
G03X1625600Y4488180I-89469J73540D01*
G03X1672212Y4443825I100000J58420D01*
G03X1660448Y4406118I54550J-37708D01*
G03X1726762Y4339804I66314J0D01*
G03X1793076Y4406118I0J66314D01*
G03X1780681Y4444723I-66314J0D01*
G03X1825600Y4488180I-55081J101877D01*
G01X1825600Y4488180D01*
G03X1925599Y4430786I100000J58420D01*
G03X2009785Y4467066I0J115814D01*
G01X2009785Y4466600D01*
G03X2045599Y4430786I35814J0D01*
G01X2205599Y4430786D01*
G03X2241413Y4466600I0J35814D01*
G01X2241413Y4626600D01*
G03X2205599Y4662414I-35814J0D01*
G01X2045599Y4662414D01*
G03X2009785Y4626600I0J-35814D01*
G01X2009785Y4626134D01*
G03X1925599Y4662414I-84186J-79534D01*
G03X1825600Y4605020I0J-115814D01*
G03X1725600Y4662414I-100000J-58420D01*
G03X1625600Y4605020I0J-115814D01*
G03X1525600Y4662414I-100000J-58420D01*
G03X1425600Y4605020I0J-115814D01*
G03X1325601Y4662414I-100000J-58420D01*
G03X1225601Y4605020I0J-115814D01*
G03X1125601Y4662414I-100000J-58420D01*
G03X1009787Y4546600I0J-115814D01*
G03X1125601Y4430786I115814J0D01*
G03X1225601Y4488180I0J115814D01*
G03X1325601Y4430786I100000J58420D01*
G03X1425600Y4488180I0J115814D01*
G03X1436131Y4473060I100000J58420D01*
G01X1477086Y4401120D01*
G01X1477086Y3945995D01*
G01X1159495Y3628405D01*
G01X1159495Y3628405D01*
G03X1145286Y3594100I34305J-34305D01*
G01X1145286Y3594100D01*
G01X1145286Y3012706D01*
G01X1132576Y2997454D01*
G01X1113800Y2997454D01*
G01X1113800Y2997454D01*
G03X1077986Y2961640I0J-35814D01*
G01X1077986Y2961640D01*
G01X1077986Y2804160D01*
G01X6695272Y307195D02*
G03X6704500Y305986I9228J34605D01*
G01X6704500Y305986D01*
G01X6884500Y305986D01*
G01X6884500Y305986D01*
G03X6920314Y341800I0J35814D01*
G01X6920314Y341800D01*
G01X6920314Y521800D01*
G01X6920314Y521800D01*
G03X6884500Y557614I-35814J0D01*
G01X6884500Y557614D01*
G01X6704500Y557614D01*
G01X6704500Y557614D01*
G03X6695272Y556405I0J-35814D01*
G01X6695272Y556405D01*
G01X6549807Y517614D01*
G01X5915645Y517614D01*
G01X5699214Y734045D01*
G01X5699214Y1358900D01*
G03X5613400Y1444714I-85814J0D01*
G03X5527586Y1358900I0J-85814D01*
G01X5527586Y698500D01*
G01X5527586Y698500D01*
G03X5552720Y637820I85814J0D01*
G01X5552720Y637820D01*
G01X5819420Y371120D01*
G01X5819420Y371120D01*
G03X5880100Y345986I60680J60680D01*
G01X6549808Y345986D01*
G01X6695272Y307195D01*
G01X7999400Y533730D02*
G03X8099400Y472186I100000J50470D01*
G03X8211414Y584200I0J112014D01*
G03X8099400Y696214I-112014J0D01*
G03X7999400Y634670I0J-112014D01*
G01X7999400Y634670D01*
G03X7899400Y696214I-100000J-50470D01*
G03X7799400Y634670I0J-112014D01*
G01X7799400Y634670D01*
G03X7699400Y696214I-100000J-50470D01*
G03X7587386Y584200I0J-112014D01*
G03X7699400Y472186I112014J0D01*
G03X7799400Y533730I0J112014D01*
G01X7799400Y533730D01*
G03X7899400Y472186I100000J50470D01*
G03X7999400Y533730I0J112014D01*
G01X4127500Y3565586D02*
G03X4303314Y3741400I0J175814D01*
G03X4127500Y3917213I-175814J0D01*
G03X3951686Y3741400I0J-175814D01*
G03X4127500Y3565586I175814J0D01*
G01X5437586Y3741400D02*
G03X5613400Y3565586I175814J0D01*
G03X5789214Y3741400I0J175814D01*
G03X5613400Y3917213I-175814J0D01*
G03X5437586Y3741400I0J-175814D01*
G01X4127500Y4515597D02*
G03X4303314Y4691410I0J175814D01*
G03X4127500Y4867224I-175814J0D01*
G03X3951686Y4691410I0J-175814D01*
G03X4127500Y4515597I175814J0D01*
G01X6668686Y2704000D02*
G03X6704500Y2668186I35814J0D01*
G01X6704500Y2668186D01*
G01X6884500Y2668186D01*
G01X6884500Y2668186D01*
G03X6920314Y2704000I0J35814D01*
G01X6920314Y2704000D01*
G01X6920314Y2884000D01*
G01X6920314Y2884000D01*
G03X6884500Y2919814I-35814J0D01*
G01X6884500Y2919814D01*
G01X6704500Y2919814D01*
G01X6704500Y2919814D01*
G03X6668686Y2884000I0J-35814D01*
G01X6668686Y2884000D01*
G01X6668686Y2704000D01*
G01X6668686Y3556000D02*
G03X6794500Y3430186I125814J0D01*
G03X6920314Y3556000I0J125814D01*
G03X6794500Y3681814I-125814J0D01*
G03X6668686Y3556000I0J-125814D01*
G01X6668686Y4064000D02*
G03X6794500Y3938186I125814J0D01*
G03X6920314Y4064000I0J125814D01*
G03X6794500Y4189814I-125814J0D01*
G03X6668686Y4064000I0J-125814D01*
G01X6794500Y4446186D02*
G03X6920314Y4572000I0J125814D01*
G03X6794500Y4697814I-125814J0D01*
G03X6668686Y4572000I0J-125814D01*
G03X6794500Y4446186I125814J0D01*
G01X6668686Y1701800D02*
G03X6794500Y1575986I125814J0D01*
G03X6920314Y1701800I0J125814D01*
G03X6794500Y1827614I-125814J0D01*
G03X6668686Y1701800I0J-125814D01*
G01X6794500Y1067986D02*
G03X6920314Y1193800I0J125814D01*
G03X6794500Y1319614I-125814J0D01*
G03X6668686Y1193800I0J-125814D01*
G03X6794500Y1067986I125814J0D01*
G01X6668686Y2209800D02*
G03X6794500Y2083986I125814J0D01*
G03X6920314Y2209800I0J125814D01*
G03X6794500Y2335614I-125814J0D01*
G03X6668686Y2209800I0J-125814D01*
G01X8026400Y4425786D02*
G03X8147214Y4546600I0J120814D01*
G03X8026400Y4667414I-120814J0D01*
G03X7905586Y4546600I0J-120814D01*
G03X8026400Y4425786I120814J0D01*
G01X8280400Y4425786D02*
G03X8401214Y4546600I0J120814D01*
G03X8280400Y4667414I-120814J0D01*
G03X8159586Y4546600I0J-120814D01*
G03X8280400Y4425786I120814J0D01*
G01X7651586Y4546600D02*
G03X7772400Y4425786I120814J0D01*
G03X7893214Y4546600I0J120814D01*
G03X7772400Y4667414I-120814J0D01*
G03X7651586Y4546600I0J-120814D01*
G01X1701800Y2767086D02*
G03X1817614Y2882900I0J115814D01*
G03X1701800Y2998714I-115814J0D01*
G03X1585986Y2882900I0J-115814D01*
G03X1701800Y2767086I115814J0D01*
G01X1447800Y2767086D02*
G03X1563614Y2882900I0J115814D01*
G03X1447800Y2998714I-115814J0D01*
G03X1331986Y2882900I0J-115814D01*
G03X1447800Y2767086I115814J0D01*
G01X1701800Y214386D02*
G03X1817614Y330200I0J115814D01*
G03X1701800Y446014I-115814J0D01*
G03X1585986Y330200I0J-115814D01*
G03X1701800Y214386I115814J0D01*
G01X1447800Y214386D02*
G03X1563614Y330200I0J115814D01*
G03X1447800Y446014I-115814J0D01*
G03X1331986Y330200I0J-115814D01*
G03X1447800Y214386I115814J0D01*
G01X2093986Y330200D02*
G03X2209800Y214386I115814J0D01*
G03X2325614Y330200I0J115814D01*
G03X2209800Y446014I-115814J0D01*
G03X2093986Y330200I0J-115814D01*
G01X2971800Y214386D02*
G03X3087614Y330200I0J115814D01*
G03X2971800Y446014I-115814J0D01*
G03X2855986Y330200I0J-115814D01*
G03X2971800Y214386I115814J0D01*
G01X1955800Y214386D02*
G03X2071614Y330200I0J115814D01*
G03X1955800Y446014I-115814J0D01*
G03X1839986Y330200I0J-115814D01*
G03X1955800Y214386I115814J0D01*
G01X2601986Y330200D02*
G03X2717800Y214386I115814J0D01*
G03X2833614Y330200I0J115814D01*
G03X2717800Y446014I-115814J0D01*
G03X2601986Y330200I0J-115814D01*
G01X2463800Y214386D02*
G03X2579614Y330200I0J115814D01*
G03X2463800Y446014I-115814J0D01*
G03X2347986Y330200I0J-115814D01*
G03X2463800Y214386I115814J0D01*
G01X3109986Y330200D02*
G03X3225800Y214386I115814J0D01*
G03X3341614Y330200I0J115814D01*
G03X3225800Y446014I-115814J0D01*
G03X3109986Y330200I0J-115814D01*
G01X4379986Y2882900D02*
G03X4495800Y2767086I115814J0D01*
G03X4611614Y2882900I0J115814D01*
G03X4495800Y2998714I-115814J0D01*
G03X4379986Y2882900I0J-115814D01*
G01X4633986Y2882900D02*
G03X4749800Y2767086I115814J0D01*
G03X4865614Y2882900I0J115814D01*
G03X4749800Y2998714I-115814J0D01*
G03X4633986Y2882900I0J-115814D01*
G01X3987800Y2767086D02*
G03X4103614Y2882900I0J115814D01*
G03X3987800Y2998714I-115814J0D01*
G03X3871986Y2882900I0J-115814D01*
G03X3987800Y2767086I115814J0D01*
G01X4241800Y2767086D02*
G03X4357614Y2882900I0J115814D01*
G03X4241800Y2998714I-115814J0D01*
G03X4125986Y2882900I0J-115814D01*
G03X4241800Y2767086I115814J0D01*
G01X3617986Y2882900D02*
G03X3733800Y2767086I115814J0D01*
G03X3849614Y2882900I0J115814D01*
G03X3733800Y2998714I-115814J0D01*
G03X3617986Y2882900I0J-115814D01*
G01X3871986Y330200D02*
G03X3987800Y214386I115814J0D01*
G03X4103614Y330200I0J115814D01*
G03X3987800Y446014I-115814J0D01*
G03X3871986Y330200I0J-115814D01*
G01X4125986Y330200D02*
G03X4241800Y214386I115814J0D01*
G03X4357614Y330200I0J115814D01*
G03X4241800Y446014I-115814J0D01*
G03X4125986Y330200I0J-115814D01*
G01X3617986Y330200D02*
G03X3733800Y214386I115814J0D01*
G03X3849614Y330200I0J115814D01*
G03X3733800Y446014I-115814J0D01*
G03X3617986Y330200I0J-115814D01*
G01X4749800Y214386D02*
G03X4865614Y330200I0J115814D01*
G03X4749800Y446014I-115814J0D01*
G03X4633986Y330200I0J-115814D01*
G03X4749800Y214386I115814J0D01*
G01X3479800Y214386D02*
G03X3595614Y330200I0J115814D01*
G03X3479800Y446014I-115814J0D01*
G03X3363986Y330200I0J-115814D01*
G03X3479800Y214386I115814J0D01*
G01X4379986Y330200D02*
G03X4495800Y214386I115814J0D01*
G03X4611614Y330200I0J115814D01*
G03X4495800Y446014I-115814J0D01*
G03X4379986Y330200I0J-115814D01*
G01X1273800Y215646D02*
G03X1309614Y251460I0J35814D01*
G01X1309614Y251460D01*
G01X1309614Y408940D01*
G01X1309614Y408940D01*
G03X1273800Y444754I-35814J0D01*
G01X1273800Y444754D01*
G01X1113800Y444754D01*
G01X1113800Y444754D01*
G03X1077986Y408940I0J-35814D01*
G01X1077986Y408940D01*
G01X1077986Y251460D01*
G01X1077986Y251460D01*
G03X1113800Y215646I35814J0D01*
G01X1113800Y215646D01*
G01X1273800Y215646D01*
G54D11*
G01X1447800Y2882900D02*
G01X1341892Y2882900D01*
G01X1447800Y2882900D02*
G01X1553708Y2882900D01*
G01X1447800Y2882900D02*
G01X1447800Y2988808D01*
G01X1447800Y2882900D02*
G01X1447800Y2776992D01*
G01X8099400Y584200D02*
G01X8201508Y584200D01*
G01X8099400Y584200D02*
G01X8099400Y482092D01*
G01X8099400Y584200D02*
G01X8099400Y686308D01*
G01X8280400Y4546600D02*
G01X8169492Y4546600D01*
G01X8280400Y4546600D02*
G01X8391308Y4546600D01*
G01X8280400Y4546600D02*
G01X8280400Y4657508D01*
G01X8280400Y4546600D02*
G01X8280400Y4435692D01*
G01X6794500Y3556000D02*
G01X6794500Y3440092D01*
G01X6794500Y3556000D02*
G01X6794500Y3671908D01*
G01X6794500Y3556000D02*
G01X6678592Y3556000D01*
G01X6794500Y3556000D02*
G01X6910408Y3556000D01*
G01X6794500Y4572000D02*
G01X6794500Y4456092D01*
G01X6794500Y4572000D02*
G01X6794500Y4687908D01*
G01X6794500Y4572000D02*
G01X6678592Y4572000D01*
G01X6794500Y4572000D02*
G01X6910408Y4572000D01*
G01X1447800Y330200D02*
G01X1341892Y330200D01*
G01X1447800Y330200D02*
G01X1553708Y330200D01*
G01X1447800Y330200D02*
G01X1447800Y436108D01*
G01X1447800Y330200D02*
G01X1447800Y224292D01*
G01X6794500Y1193800D02*
G01X6794500Y1077892D01*
G01X6794500Y1193800D02*
G01X6794500Y1309708D01*
G01X6794500Y1193800D02*
G01X6678592Y1193800D01*
G01X6794500Y1193800D02*
G01X6910408Y1193800D01*
G01X6794500Y1701800D02*
G01X6794500Y1585892D01*
G01X6794500Y1701800D02*
G01X6794500Y1817708D01*
G01X6794500Y1701800D02*
G01X6678592Y1701800D01*
G01X6794500Y1701800D02*
G01X6910408Y1701800D01*
G01X3060700Y4546600D02*
G01X3060700Y4444492D01*
G01X3060700Y4546600D02*
G01X3060700Y4648708D01*
G01X1325601Y4546600D02*
G01X1325601Y4652508D01*
G01X1325601Y4546600D02*
G01X1325601Y4440692D01*
G01X1925599Y4546600D02*
G01X1925599Y4652508D01*
G01X1925599Y4546600D02*
G01X1925599Y4440692D01*
G01X6794500Y4064000D02*
G01X6794500Y3948092D01*
G01X6794500Y4064000D02*
G01X6794500Y4179908D01*
G01X6794500Y4064000D02*
G01X6678592Y4064000D01*
G01X6794500Y4064000D02*
G01X6910408Y4064000D01*
G01X4127500Y4691410D02*
G01X4127500Y4525503D01*
G01X4127500Y4691410D02*
G01X4127500Y4857318D01*
G01X4127500Y4691410D02*
G01X3961592Y4691410D01*
G01X4127500Y4691410D02*
G01X4293408Y4691410D01*
G01X6794500Y2209800D02*
G01X6794500Y2093892D01*
G01X6794500Y2209800D02*
G01X6794500Y2325708D01*
G01X6794500Y2209800D02*
G01X6678592Y2209800D01*
G01X6794500Y2209800D02*
G01X6910408Y2209800D01*
G04 Copper End*

G04 TearDrop Start*
G36*
G01X6734971Y3369500D02*
G01X6641500Y3314700D01*
G01X6641500Y3289300D01*
G01X6734971Y3234500D01*
G01X6734971Y3369500D01*
G37*
G36*
G01X6734971Y3877500D02*
G01X6641500Y3822700D01*
G01X6641500Y3797300D01*
G01X6734971Y3742500D01*
G01X6734971Y3877500D01*
G37*
G36*
G01X2289643Y2877890D02*
G01X2314947Y2970086D01*
G01X2296986Y2988047D01*
G01X2204790Y2962743D01*
G01X2289643Y2877890D01*
G37*
G36*
G01X6745091Y4393225D02*
G01X6643574Y4343400D01*
G01X6639954Y4318000D01*
G01X6726041Y4259576D01*
G01X6745091Y4393225D01*
G37*
G36*
G01X2035643Y2877890D02*
G01X2060947Y2970086D01*
G01X2042986Y2988047D01*
G01X1950790Y2962743D01*
G01X2035643Y2877890D01*
G37*
G36*
G01X6726041Y2014224D02*
G01X6639954Y1955800D01*
G01X6643574Y1930400D01*
G01X6745091Y1880575D01*
G01X6726041Y2014224D01*
G37*
G36*
G01X3238843Y2803971D02*
G01X3327348Y2788791D01*
G01X3341171Y2810890D01*
G01X3302480Y2905707D01*
G01X3238843Y2803971D01*
G37*
G36*
G01X6734971Y1515300D02*
G01X6641500Y1460500D01*
G01X6641500Y1435100D01*
G01X6734971Y1380300D01*
G01X6734971Y1515300D01*
G37*
G36*
G01X2966790Y2803057D02*
G01X3058986Y2777753D01*
G01X3076947Y2795714D01*
G01X3051643Y2887910D01*
G01X2966790Y2803057D01*
G37*
G36*
G01X6554500Y481800D02*
G01X6554500Y381800D01*
G01X6704500Y341800D01*
G01X6704500Y521800D01*
G01X6554500Y481800D01*
G37*
G36*
G01X7424420Y4658541D02*
G01X7406459Y4640580D01*
G01X7433400Y4568738D01*
G01X7496262Y4631600D01*
G01X7424420Y4658541D01*
G37*
G36*
G01X3311101Y4489450D02*
G01X3390240Y4533900D01*
G01X3390240Y4559300D01*
G01X3311101Y4603750D01*
G01X3311101Y4489450D01*
G37*
G36*
G01X1985599Y4599515D02*
G01X1938299Y4682600D01*
G01X1912899Y4682600D01*
G01X1865600Y4599515D01*
G01X1985599Y4599515D01*
G37*
G36*
G01X3117850Y4597001D02*
G01X3073400Y4660900D01*
G01X3048000Y4660900D01*
G01X3003550Y4597001D01*
G01X3117850Y4597001D01*
G37*
G36*
G01X1385600Y4599515D02*
G01X1338301Y4682600D01*
G01X1312901Y4682600D01*
G01X1265601Y4599515D01*
G01X1385600Y4599515D01*
G37*
G36*
G01X1465600Y4493685D02*
G01X1512900Y4410600D01*
G01X1538300Y4410600D01*
G01X1585600Y4493685D01*
G01X1465600Y4493685D01*
G37*
G36*
G01X1181100Y2999740D02*
G01X1149350Y2961640D01*
G01X1238250Y2961640D01*
G01X1206500Y2999740D01*
G01X1181100Y2999740D01*
G37*
G36*
G01X6854029Y618300D02*
G01X6947500Y635800D01*
G01X6947500Y735800D01*
G01X6854029Y753300D01*
G01X6854029Y618300D01*
G37*
G36*
G01X6854029Y2980500D02*
G01X6947500Y2998000D01*
G01X6947500Y3098000D01*
G01X6854029Y3115500D01*
G01X6854029Y2980500D01*
G37*
G36*
G01X3219485Y4805666D02*
G01X3204282Y4776073D01*
G01X3222242Y4758112D01*
G01X3251836Y4773316D01*
G01X3219485Y4805666D01*
G37*
G36*
G01X3122746Y4590836D02*
G01X3133421Y4669291D01*
G01X3100876Y4672667D01*
G01X3009056Y4602630D01*
G01X3122746Y4590836D01*
G37*
G36*
G01X6734971Y1007300D02*
G01X6641500Y952500D01*
G01X6641500Y927100D01*
G01X6734971Y872300D01*
G01X6734971Y1007300D01*
G37*
G36*
G01X2543643Y2877890D02*
G01X2568947Y2970086D01*
G01X2550986Y2988047D01*
G01X2458790Y2962743D01*
G01X2543643Y2877890D01*
G37*
G36*
G01X2712790Y2803057D02*
G01X2804986Y2777753D01*
G01X2822947Y2795714D01*
G01X2797643Y2887910D01*
G01X2712790Y2803057D01*
G37*
G36*
G01X5706001Y4586411D02*
G01X5851400Y4641411D01*
G01X5851400Y4741411D01*
G01X5706001Y4796410D01*
G01X5706001Y4586411D01*
G37*
G04 TearDrop End*

G04 Pad Start*
G54D12*
G01X4749800Y2882900D03*
G01X4495800Y2882900D03*
G01X4241800Y2882900D03*
G01X3987800Y2882900D03*
G01X3733800Y2882900D03*
G01X3479800Y2882900D03*
G01X3225800Y2882900D03*
G01X2971800Y2882900D03*
G01X2717800Y2882900D03*
G01X2463800Y2882900D03*
G01X2209800Y2882900D03*
G01X1955800Y2882900D03*
G01X1701800Y2882900D03*
G01X1447800Y2882900D03*
G54D13*
G01X1193800Y2882900D03*
G54D12*
G01X4749800Y330200D03*
G01X4495800Y330200D03*
G01X4241800Y330200D03*
G01X3987800Y330200D03*
G01X3733800Y330200D03*
G01X3479800Y330200D03*
G01X3225800Y330200D03*
G01X2971800Y330200D03*
G01X2717800Y330200D03*
G01X2463800Y330200D03*
G01X2209800Y330200D03*
G01X1955800Y330200D03*
G01X1701800Y330200D03*
G01X1447800Y330200D03*
G54D13*
G01X1193800Y330200D03*
G54D14*
G01X5613400Y3741400D03*
G01X5613400Y4691410D03*
G54D15*
G01X6794500Y2794000D03*
G54D16*
G01X6794500Y3048000D03*
G01X6794500Y3302000D03*
G01X6794500Y3556000D03*
G01X6794500Y3810000D03*
G01X6794500Y4064000D03*
G01X6794500Y4318000D03*
G01X6794500Y4572000D03*
G54D15*
G01X6794500Y431800D03*
G54D16*
G01X6794500Y685800D03*
G01X6794500Y939800D03*
G01X6794500Y1193800D03*
G01X6794500Y1447800D03*
G01X6794500Y1701800D03*
G01X6794500Y1955800D03*
G01X6794500Y2209800D03*
G54D17*
G01X7518400Y4546600D03*
G54D18*
G01X7772400Y4546600D03*
G01X8026400Y4546600D03*
G01X8280400Y4546600D03*
G54D20*
G01X3260700Y4546600D03*
G01X3060700Y4546600D03*
G01X2860700Y4546600D03*
G54D12*
G01X1125601Y4546600D03*
G01X1325601Y4546600D03*
G01X1525600Y4546600D03*
G01X1725600Y4546600D03*
G01X1925599Y4546600D03*
G54D21*
G01X2125599Y4546600D03*
G54D20*
G01X8099400Y584200D03*
G01X7899400Y584200D03*
G01X7699400Y584200D03*
G54D14*
G01X4127500Y3741400D03*
G01X4127500Y4691410D03*
G04 Pad End*

G04 Via Start*
G54D22*
G01X5613400Y1358900D03*
G54D23*
G01X1726762Y4406118D03*
G01X2901010Y4408004D03*
G01X3249926Y4803756D03*
G01X8851900Y165100D03*
G01X8851900Y4826000D03*
G01X177800Y177800D03*
G01X165100Y4826000D03*
G54D24*
G01X8851900Y165100D03*
G01X8851900Y4826000D03*
G01X177800Y177800D03*
G01X165100Y4826000D03*
G04 Via End*

G04 Track Start*
G54D11*
G01X6286500Y3187700D02*
G01X6400800Y3302000D01*
G01X6794500Y3302000D01*
G01X2755900Y3187700D02*
G01X6286500Y3187700D01*
G01X2755900Y3175000D02*
G01X2755900Y3187700D01*
G01X2463800Y2882900D02*
G01X2755900Y3175000D01*
G01X6007100Y3340100D02*
G01X6477000Y3810000D01*
G01X2667000Y3340100D02*
G01X6007100Y3340100D01*
G01X6477000Y3810000D02*
G01X6794500Y3810000D01*
G01X2209800Y2882900D02*
G01X2667000Y3340100D01*
G01X2552700Y3479800D02*
G01X4648200Y3479800D01*
G01X6781800Y4330700D02*
G01X6794500Y4318000D01*
G01X6261100Y4330700D02*
G01X6781800Y4330700D01*
G01X6045200Y4114800D02*
G01X6261100Y4330700D01*
G01X5283200Y4114800D02*
G01X6045200Y4114800D01*
G01X4648200Y3479800D02*
G01X5283200Y4114800D01*
G01X1955800Y2882900D02*
G01X2552700Y3479800D01*
G54D22*
G01X6985000Y4838700D02*
G01X6210300Y4838700D01*
G01X7200900Y4622800D02*
G01X7200900Y3009900D01*
G01X6985000Y4838700D02*
G01X7200900Y4622800D01*
G01X6063010Y4691410D02*
G01X6210300Y4838700D01*
G01X5613400Y4691410D02*
G01X6063010Y4691410D01*
G54D11*
G01X6781800Y1943100D02*
G01X6794500Y1955800D01*
G01X4191000Y1943100D02*
G01X6781800Y1943100D01*
G01X3251200Y2882900D02*
G01X4191000Y1943100D01*
G01X3225800Y2882900D02*
G01X3251200Y2882900D01*
G01X6032500Y1676400D02*
G01X6261100Y1447800D01*
G01X4178300Y1676400D02*
G01X6032500Y1676400D01*
G01X6261100Y1447800D02*
G01X6794500Y1447800D01*
G01X2971800Y2882900D02*
G01X4178300Y1676400D01*
G54D22*
G01X5613400Y698500D02*
G01X5880100Y431800D01*
G01X6794500Y431800D01*
G01X5613400Y1358900D02*
G01X5613400Y698500D01*
G54D11*
G01X7124700Y4940300D02*
G01X7518400Y4546600D01*
G01X3835400Y4940300D02*
G01X7124700Y4940300D01*
G01X3441700Y4546600D02*
G01X3835400Y4940300D01*
G01X3260700Y4546600D02*
G01X3441700Y4546600D01*
G01X1898955Y4800600D02*
G01X2921000Y4800600D01*
G01X1358900Y4800600D02*
G01X1898955Y4800600D01*
G01X1925599Y4773956D02*
G01X1898955Y4800600D01*
G01X1925599Y4546600D02*
G01X1925599Y4773956D01*
G01X3060700Y4614531D02*
G01X3060700Y4546600D01*
G01X1325601Y4767301D02*
G01X1358900Y4800600D01*
G01X3060700Y4660900D02*
G01X3060700Y4614531D01*
G01X2921000Y4800600D02*
G01X3060700Y4660900D01*
G01X1325601Y4546600D02*
G01X1325601Y4767301D01*
G01X1525600Y3925900D02*
G01X1525600Y4546600D01*
G01X1193800Y3594100D02*
G01X1525600Y3925900D01*
G01X1193800Y2882900D02*
G01X1193800Y3594100D01*
G54D22*
G01X7200900Y723900D02*
G01X7162800Y685800D01*
G01X6794500Y685800D01*
G01X7200900Y3009900D02*
G01X7200900Y723900D01*
G01X7162800Y3048000D02*
G01X7200900Y3009900D01*
G01X6794500Y3048000D02*
G01X7162800Y3048000D01*
G54D11*
G01X3060700Y4614531D02*
G01X3249926Y4803756D01*
G01X2717800Y2882900D02*
G01X4051300Y1549400D01*
G01X5854700Y1549400D01*
G01X6464300Y939800D01*
G01X6794500Y939800D01*
G04 Track End*

M02*

