G04 Layer: TopSolderMaskLayer*
G04 EasyEDA Pro v2.2.34.8, 2025-02-09 20:03:56*
G04 Gerber Generator version 0.3*
G04 Scale: 100 percent, Rotated: No, Reflected: No*
G04 Dimensions in millimeters*
G04 Leading zeros omitted, absolute positions, 4 integers and 5 decimals*
%FSLAX45Y45*%
%MOMM*%
%AMRoundRect*1,1,$1,$2,$3*1,1,$1,$4,$5*1,1,$1,0-$2,0-$3*1,1,$1,0-$4,0-$5*20,1,$1,$2,$3,$4,$5,0*20,1,$1,$4,$5,0-$2,0-$3,0*20,1,$1,0-$2,0-$3,0-$4,0-$5,0*20,1,$1,0-$4,0-$5,$2,$3,0*4,1,4,$2,$3,$4,$5,0-$2,0-$3,0-$4,0-$5,$2,$3,0*%
%ADD10C,1.8032*%
%ADD11RoundRect,0.18236X-0.81042X0.79782X0.81042X0.79782*%
%ADD12C,3.00319*%
%ADD13RoundRect,0.18449X-0.90936X-0.90936X-0.90936X0.90936*%
%ADD14C,2.0032*%
%ADD15RoundRect,0.1836X-0.8598X0.8598X0.8598X0.8598*%
%ADD16C,1.9032*%
%ADD17C,1.62403*%
%ADD18RoundRect,0.18262X-0.81029X0.81029X0.81029X0.81029*%
%ADD19C,0.61*%
G75*


G04 Pad Start*
G54D10*
G01X4749800Y2882900D03*
G01X4495800Y2882900D03*
G01X4241800Y2882900D03*
G01X3987800Y2882900D03*
G01X3733800Y2882900D03*
G01X3479800Y2882900D03*
G01X3225800Y2882900D03*
G01X2971800Y2882900D03*
G01X2717800Y2882900D03*
G01X2463800Y2882900D03*
G01X2209800Y2882900D03*
G01X1955800Y2882900D03*
G01X1701800Y2882900D03*
G01X1447800Y2882900D03*
G54D11*
G01X1193800Y2882900D03*
G54D10*
G01X4749800Y330200D03*
G01X4495800Y330200D03*
G01X4241800Y330200D03*
G01X3987800Y330200D03*
G01X3733800Y330200D03*
G01X3479800Y330200D03*
G01X3225800Y330200D03*
G01X2971800Y330200D03*
G01X2717800Y330200D03*
G01X2463800Y330200D03*
G01X2209800Y330200D03*
G01X1955800Y330200D03*
G01X1701800Y330200D03*
G01X1447800Y330200D03*
G54D11*
G01X1193800Y330200D03*
G54D12*
G01X5613400Y3741400D03*
G01X5613400Y4691410D03*
G54D13*
G01X6794500Y2794000D03*
G54D14*
G01X6794500Y3048000D03*
G01X6794500Y3302000D03*
G01X6794500Y3556000D03*
G01X6794500Y3810000D03*
G01X6794500Y4064000D03*
G01X6794500Y4318000D03*
G01X6794500Y4572000D03*
G54D13*
G01X6794500Y431800D03*
G54D14*
G01X6794500Y685800D03*
G01X6794500Y939800D03*
G01X6794500Y1193800D03*
G01X6794500Y1447800D03*
G01X6794500Y1701800D03*
G01X6794500Y1955800D03*
G01X6794500Y2209800D03*
G54D15*
G01X7518400Y4546600D03*
G54D16*
G01X7772400Y4546600D03*
G01X8026400Y4546600D03*
G01X8280400Y4546600D03*
G54D17*
G01X3260700Y4546600D03*
G01X3060700Y4546600D03*
G01X2860700Y4546600D03*
G54D10*
G01X1125601Y4546600D03*
G01X1325601Y4546600D03*
G01X1525600Y4546600D03*
G01X1725600Y4546600D03*
G01X1925599Y4546600D03*
G54D18*
G01X2125599Y4546600D03*
G54D17*
G01X8099400Y584200D03*
G01X7899400Y584200D03*
G01X7699400Y584200D03*
G54D12*
G01X4127500Y3741400D03*
G01X4127500Y4691410D03*
G04 Pad End*

G04 Via Start*
G54D19*
G01X1726762Y4406118D03*
G01X2901010Y4408004D03*
G01X3249926Y4803756D03*
G01X8851900Y165100D03*
G01X8851900Y4826000D03*
G01X177800Y177800D03*
G01X165100Y4826000D03*
G04 Via End*

M02*

